<?xml version="1.0" encoding="iso-8859-1"?>
<!-- Generator: Adobe Illustrator 22.0.0, SVG Export Plug-In . SVG Version: 6.00 Build 0)  -->
<svg version="1.1" id="Capa_1" xmlns="http://www.w3.org/2000/svg" xmlns:xlink="http://www.w3.org/1999/xlink" x="0px" y="0px"
	 viewBox="0 0 512 512" style="enable-background:new 0 0 512 512;" xml:space="preserve">
<g>
	<linearGradient id="SVGID_1_" gradientUnits="userSpaceOnUse" x1="256" y1="-3.7767" x2="256" y2="630.805">
		<stop  offset="0.0023" style="stop-color:#FFC599"/>
		<stop  offset="0.992" style="stop-color:#FFE8DC;stop-opacity:0"/>
	</linearGradient>
	<path style="fill:url(#SVGID_1_);" d="M512,192.135c0-77.209-114.615-139.799-256-139.799S0,114.926,0,192.135
		c0,12.48,2.999,24.577,8.62,36.089c10.007,20.491,12.502,43.828,7.537,66.086c-2.036,9.127-3.179,18.59-3.333,28.294
		c-1.235,77.812,61.961,142.061,139.782,142.06c58.443,0,108.503-35.865,129.385-86.785c11.468-27.964,35.565-48.919,65.155-55.077
		C443.526,302.745,512,251.81,512,192.135z"/>
	<g>
		<path style="opacity:0.1;fill:#0000CC;" d="M468.802,458.261L368.574,358.032c-3.586-3.586-9.4-3.586-12.986,0l-2.591,2.591
			l-34.506-34.506c12.086-14.955,19.746-32.298,22.986-50.283h19.848c3.276,0,5.933-2.656,5.933-5.933V168.358
			c0-5.518,4.473-9.991,9.991-9.991h0c5.518,0,9.991,4.473,9.991,9.991v101.543c0,3.277,2.656,5.933,5.933,5.933h27.187
			c3.276,0,5.933-2.656,5.933-5.933V115.65c0-3.277-2.656-5.933-5.933-5.933h-86.221c-3.276,0-5.933,2.656-5.933,5.933v84.151
			c-4.771-8.221-10.668-15.966-17.707-23.005c-22.306-22.306-51.688-33.216-80.92-32.745v-32.593l16.211,16.211
			c1.793,1.793,4.7,1.793,6.493,0l28.245-28.245c1.793-1.793,1.793-4.7,0-6.493l-49.605-49.605
			c-0.861-0.861-2.029-1.345-3.247-1.345h-23.694c-1.815,0-3.491,1.056-4.195,2.73c-4.693,11.162-15.735,19.003-28.607,19.003
			c-12.872,0-23.914-7.841-28.607-19.003c-0.704-1.673-2.38-2.73-4.195-2.73h-23.694c-1.218,0-2.386,0.484-3.247,1.345L61.834,92.93
			c-1.793,1.793-1.793,4.7,0,6.493l28.245,28.245c1.793,1.793,4.7,1.793,6.493,0l16.211-16.211v98.241
			c0,2.536,2.056,4.591,4.591,4.591h10.148c-13.478,33.69-9.919,72.606,10.679,103.534H67.103c-3.276,0-5.933,2.656-5.933,5.933
			v94.306c0,3.276,2.656,5.933,5.933,5.933H94.29c3.276,0,5.933-2.656,5.933-5.933v-41.598c0-5.518,4.473-9.991,9.991-9.991
			s9.991,4.473,9.991,9.991v41.598c0,3.276,2.656,5.933,5.933,5.933h27.187c3.277,0,5.933-2.656,5.933-5.933v-76.655
			c40.929,34.607,100.842,35.139,142.352,1.591l34.506,34.506l-2.591,2.591c-3.586,3.586-3.586,9.4,0,12.986L433.753,493.31
			c3.586,3.586,9.4,3.586,12.986,0l22.064-22.064C472.389,467.661,472.389,461.847,468.802,458.261z"/>
		<g>
			<g>
				<g>
					<path style="fill:#9494FF;" d="M328.206,94.669v154.252c0,3.277,2.656,5.933,5.933,5.933h27.187
						c3.277,0,5.933-2.656,5.933-5.933V147.377c0-5.518,4.473-9.991,9.991-9.991l0,0c5.518,0,9.991,4.473,9.991,9.991v101.543
						c0,3.277,2.656,5.933,5.933,5.933h27.187c3.277,0,5.933-2.656,5.933-5.933V94.669c0-3.277-2.656-5.933-5.933-5.933h-86.221
						C330.862,88.736,328.206,91.393,328.206,94.669z"/>
					<path style="fill:#D9D9FF;" d="M426.292,105.548V94.669c0-3.277-2.656-5.933-5.933-5.933h-86.221
						c-3.277,0-5.933,2.656-5.933,5.933v10.879H426.292z"/>
					<path style="fill:#D9D9FF;" d="M328.206,237.055v11.865c0,3.277,2.656,5.933,5.933,5.933h27.187
						c3.277,0,5.933-2.656,5.933-5.933v-11.865H328.206z"/>
					<path style="fill:#D9D9FF;" d="M387.24,237.055v11.865c0,3.277,2.656,5.933,5.933,5.933h27.187
						c3.277,0,5.933-2.656,5.933-5.933v-11.865H387.24z"/>
					<path style="fill:#6C6CFF;" d="M402.784,105.548c0.259,10.092,5.721,19.335,14.498,24.395l9.006,5.197v-29.592H402.784z"/>
					<path style="fill:#6C6CFF;" d="M351.71,105.548c-0.259,10.092-5.721,19.335-14.498,24.395l-9.006,5.197v-29.592H351.71z"/>
					<path style="fill:#B3B3FF;" d="M358.532,107.441h-5.636c-0.655,0-1.187-0.531-1.187-1.187V88.736h8.009v17.518
						C359.719,106.91,359.188,107.441,358.532,107.441z"/>
					<path style="fill:#B3B3FF;" d="M401.598,107.441h-5.636c-0.655,0-1.187-0.531-1.187-1.187V88.736h8.009v17.518
						C402.784,106.91,402.253,107.441,401.598,107.441z"/>
				</g>
				<g>
					<path style="fill:#FF9494;" d="M61.17,302.776v94.306c0,3.277,2.656,5.933,5.933,5.933H94.29c3.277,0,5.933-2.656,5.933-5.933
						v-41.598c0-5.518,4.473-9.991,9.991-9.991h0c5.518,0,9.991,4.473,9.991,9.991v41.598c0,3.277,2.656,5.933,5.933,5.933h27.187
						c3.277,0,5.933-2.656,5.933-5.933v-94.306c0-3.277-2.656-5.933-5.933-5.933H67.103C63.827,296.844,61.17,299.5,61.17,302.776z"
						/>
					<path style="fill:#FFD9D9;" d="M159.257,313.656v-10.879c0-3.277-2.656-5.933-5.933-5.933H67.103
						c-3.277,0-5.933,2.656-5.933,5.933v10.879H159.257z"/>
					<path style="fill:#FFD9D9;" d="M61.17,385.217v11.865c0,3.277,2.656,5.933,5.933,5.933H94.29c3.277,0,5.933-2.656,5.933-5.933
						v-11.865H61.17z"/>
					<path style="fill:#FFD9D9;" d="M120.204,385.217v11.865c0,3.277,2.656,5.933,5.933,5.933h27.187
						c3.277,0,5.933-2.656,5.933-5.933v-11.865H120.204z"/>
					<path style="fill:#FF4D4D;" d="M135.749,313.656c0.259,10.092,5.721,19.335,14.498,24.395l9.006,5.197v-29.592H135.749z"/>
					<path style="fill:#FF4D4D;" d="M84.675,313.656c-0.259,10.092-5.721,19.335-14.498,24.395l-9.006,5.197v-29.592H84.675z"/>
					<path style="fill:#FF9494;" d="M91.497,315.549h-5.636c-0.655,0-1.187-0.531-1.187-1.187v-17.518h8.009v17.518
						C92.684,315.017,92.152,315.549,91.497,315.549z"/>
					<path style="fill:#FF9494;" d="M134.562,315.549h-5.636c-0.655,0-1.187-0.531-1.187-1.187v-17.518h8.009v17.518
						C135.749,315.017,135.218,315.549,134.562,315.549z"/>
				</g>
				<g>
					<g>
						<path style="fill:#FF4D4D;" d="M280.528,78.442l-28.246,28.246c-1.793,1.793-4.7,1.793-6.493,0l-16.211-16.211v98.241
							c0,2.536-2.056,4.591-4.591,4.591H117.375c-2.536,0-4.591-2.056-4.591-4.591V90.477l-16.211,16.211
							c-1.793,1.793-4.7,1.793-6.493,0L61.834,78.442c-1.793-1.793-1.793-4.7,0-6.493l49.605-49.605
							C112.3,21.484,113.468,21,114.686,21l23.694,0c1.815,0,3.491,1.056,4.195,2.73c4.693,11.162,15.735,19.003,28.607,19.003
							c12.872,0,23.914-7.841,28.607-19.003c0.704-1.674,2.38-2.73,4.195-2.73l23.694,0c1.218,0,2.385,0.484,3.247,1.345
							l49.605,49.605C282.321,73.742,282.321,76.649,280.528,78.442z"/>
						<g>
							
								<rect x="313.905" y="294.476" transform="matrix(0.7071 -0.7071 0.7071 0.7071 -137.4624 326.8753)" style="fill:#4D4DFF;stroke:#0000CC;stroke-width:10;stroke-linecap:round;stroke-linejoin:round;stroke-miterlimit:10;" width="23.875" height="69.788"/>
							<path style="fill:#2C27FF;" d="M309.61,296.255l18.596,18.596c-2.474,3.071-5.143,6.039-7.993,8.889
								c-2.85,2.85-5.818,5.519-8.889,7.993l-18.596-18.596L309.61,296.255z"/>
							<circle style="fill:#FF9D33;" cx="231.394" cy="234.921" r="111.872"/>
							<circle style="fill:#D9D9FF;" cx="231.394" cy="234.921" r="86.124"/>
							<path style="fill:#EBEBFF;" d="M316.764,223.572l-96.722,96.712c-9.481-1.239-18.783-4.066-27.495-8.472l115.734-115.734
								C312.698,204.789,315.526,214.091,316.764,223.572z"/>
							<path style="fill:#EBEBFF;" d="M303.716,188.134L184.615,307.236c-5.005-3.227-9.741-7.044-14.117-11.42
								c-5.435-5.435-10.001-11.42-13.667-17.774L274.513,160.36c6.354,3.667,12.349,8.232,17.784,13.667
								C296.673,178.403,300.479,183.139,303.716,188.134z"/>
							<path style="fill:#FF6C6C;" d="M260.696,153.926v106.403c0,3.167-2.568,5.715-5.725,5.715H151.066
								c-11.919-30.832-5.455-67.139,19.422-92.016C194.876,149.639,230.273,142.936,260.696,153.926z"/>
							<path style="fill:#FF9D33;" d="M468.802,450.266l-22.064,22.064c-3.586,3.586-9.4,3.586-12.986,0L333.524,372.101
								c-3.586-3.586-3.586-9.4,0-12.986l22.064-22.064c3.586-3.586,9.4-3.586,12.986,0L468.802,437.28
								C472.388,440.866,472.388,446.68,468.802,450.266z"/>
							
								<rect x="349.89" y="366.742" transform="matrix(0.7071 -0.7071 0.7071 0.7071 -157.689 375.7066)" style="fill:#FFC599;" width="49.568" height="22.917"/>
							<g>
								<path style="fill:#0000CC;" d="M295.828,170.487c-17.211-17.211-40.094-26.689-64.434-26.689s-47.223,9.479-64.434,26.689
									s-26.689,40.094-26.689,64.434s9.479,47.223,26.689,64.434s40.094,26.689,64.434,26.689s47.223-9.479,64.434-26.689
									s26.69-40.094,26.69-64.434S313.039,187.698,295.828,170.487z M288.756,292.284c-15.322,15.322-35.694,23.761-57.363,23.761
									s-42.041-8.438-57.363-23.761s-23.761-35.694-23.761-57.363s8.438-42.041,23.761-57.363s35.694-23.761,57.363-23.761
									s42.041,8.438,57.363,23.761c15.323,15.322,23.761,35.694,23.761,57.363S304.079,276.961,288.756,292.284z"/>
								<path style="fill:#0000CC;" d="M472.338,433.744l-76.187-76.187c-1.953-1.952-5.118-1.952-7.071,0
									c-1.953,1.953-1.953,5.119,0,7.071l76.187,76.187c1.631,1.631,1.631,4.284,0,5.915l-22.064,22.063
									c-1.631,1.631-4.284,1.631-5.915,0L337.06,368.566c-1.631-1.631-1.631-4.285,0-5.916l22.063-22.064
									c1.631-1.631,4.284-1.631,5.915,0c1.953,1.952,5.118,1.952,7.071,0c1.953-1.953,1.953-5.119,0-7.071
									c-5.211-5.21-13.499-5.506-19.065-0.897l-27.905-27.904c10.146-13.609,16.949-28.94,20.4-44.861h15.785
									c6.028,0,10.933-4.904,10.933-10.933V147.377c0-2.752,2.239-4.991,4.991-4.991s4.991,2.239,4.991,4.991v101.543
									c0,6.028,4.904,10.933,10.933,10.933h27.187c6.028,0,10.933-4.904,10.933-10.933V94.669c0-6.028-4.905-10.933-10.933-10.933
									h-86.221c-6.028,0-10.933,4.904-10.933,10.933v67.938c-2.821-3.576-5.873-7.028-9.171-10.327
									c-21.976-21.976-50.598-33.35-79.456-34.13v-15.602l7.675,7.675c3.74,3.739,9.824,3.739,13.564,0l28.246-28.246
									c3.74-3.74,3.74-9.825,0-13.564l-49.605-49.605c-1.812-1.811-4.22-2.808-6.781-2.808h-23.694
									c-3.869,0-7.325,2.273-8.804,5.792c-4.071,9.684-13.491,15.941-23.998,15.941s-19.926-6.257-23.998-15.941
									c-1.479-3.519-4.935-5.792-8.804-5.792h-23.694c-2.561,0-4.969,0.997-6.782,2.809L58.299,68.414
									c-3.74,3.74-3.74,9.825,0,13.564l28.246,28.246c3.74,3.739,9.824,3.739,13.564,0l7.675-7.675v86.17
									c0,5.289,4.303,9.591,9.591,9.591h3.048c-10.077,30.714-7.12,64.808,8.883,93.534H67.103
									c-6.028,0-10.933,4.904-10.933,10.933v94.307c0,6.028,4.904,10.933,10.933,10.933h27.188
									c6.028,0,10.933-4.904,10.933-10.933v-41.598c0-2.752,2.239-4.991,4.991-4.991s4.991,2.239,4.991,4.991v41.598
									c0,6.028,4.904,10.933,10.933,10.933h27.187c6.028,0,10.933-4.904,10.933-10.933v-42.038c0-2.761-2.239-5-5-5s-5,2.239-5,5
									v42.038c0,0.514-0.418,0.933-0.933,0.933h-27.187c-0.514,0-0.933-0.418-0.933-0.933v-41.598
									c0-8.266-6.725-14.991-14.991-14.991s-14.991,6.725-14.991,14.991v41.598c0,0.514-0.418,0.933-0.933,0.933H67.103
									c-0.514,0-0.933-0.418-0.933-0.933v-94.307c0-0.514,0.418-0.933,0.933-0.933h68.465c3.863,5.525,8.256,10.789,13.185,15.718
									c22.785,22.784,52.713,34.176,82.641,34.176c24.586,0,49.168-7.694,69.794-23.07l27.905,27.905
									c-4.609,5.566-4.313,13.854,0.897,19.065l100.228,100.228c2.765,2.765,6.396,4.147,10.029,4.147
									c3.631,0,7.264-1.383,10.029-4.147l22.064-22.064C477.868,448.271,477.868,439.274,472.338,433.744z M333.206,94.669
									c0-0.514,0.418-0.933,0.933-0.933h86.221c0.515,0,0.933,0.418,0.933,0.933v154.252c0,0.514-0.418,0.933-0.933,0.933h-27.187
									c-0.514,0-0.933-0.418-0.933-0.933V147.377c0-8.266-6.725-14.991-14.991-14.991s-14.991,6.725-14.991,14.991v101.543
									c0,0.514-0.418,0.933-0.933,0.933h-14.072c3.149-24.652-1.532-50.119-14.048-72.335V94.669z M117.784,188.31V90.477
									c0-2.022-1.218-3.846-3.086-4.62c-1.868-0.773-4.02-0.346-5.449,1.084l-15.921,15.922L65.659,75.196L114.855,26h23.251
									c5.71,13.214,18.653,21.733,33.075,21.733c14.422,0,27.365-8.519,33.075-21.733h23.252l49.195,49.196l-27.667,27.667
									l-15.921-15.922c-1.43-1.43-3.58-1.857-5.449-1.084c-1.868,0.774-3.086,2.597-3.086,4.62v27.831
									c-27.617,1.599-54.772,12.917-75.827,33.971c-10.684,10.684-18.863,22.94-24.537,36.03H117.784z M155.824,310.491
									c-41.669-41.669-41.669-109.47,0-151.14c20.837-20.837,48.199-31.252,75.57-31.252c27.364,0,54.738,10.42,75.57,31.252
									c41.669,41.669,41.669,109.47,0,151.14C265.294,352.16,197.494,352.16,155.824,310.491z M314.035,317.562
									c1.647-1.647,3.228-3.336,4.756-5.055l27.136,27.135l-9.811,9.811l-27.135-27.135
									C310.699,320.79,312.388,319.209,314.035,317.562z"/>
							</g>
						</g>
					</g>
					<path style="fill:#4D4DFF;" d="M231.356,245.012h-29.973c-2.759,0-4.995-2.237-4.995-4.995v-11.323
						c0-2.759,2.237-4.995,4.995-4.995h29.973c2.759,0,4.995,2.237,4.995,4.995v11.323
						C236.351,242.776,234.115,245.012,231.356,245.012z"/>
					<path style="fill:#FF9494;" d="M260.696,243.664v16.665c0,3.167-2.568,5.715-5.725,5.715h-16.655L260.696,243.664z"/>
					<polygon style="fill:#FF9494;" points="260.696,174.177 260.696,231.155 225.808,266.043 168.83,266.043 					"/>
					<path style="fill:#6C6CFF;" d="M236.348,228.697v11.32c0,2.757-2.238,4.995-4.995,4.995H201.38
						c-2.757,0-4.995-2.238-4.995-4.995v-1.529l14.786-14.786h20.182C234.11,223.702,236.348,225.94,236.348,228.697z"/>
				</g>
			</g>
			<path style="fill:#FF9D33;" d="M426.834,331.04c-1.28,0-2.559-0.488-3.536-1.464c-1.953-1.953-1.953-5.119,0-7.071l9.991-9.991
				c1.952-1.952,5.118-1.952,7.071,0c1.953,1.953,1.953,5.119,0,7.071l-9.991,9.991C429.394,330.552,428.114,331.04,426.834,331.04z
				"/>
			<path style="fill:#FF9D33;" d="M216.37,412.787c-1.28,0-2.559-0.488-3.536-1.464c-1.953-1.953-1.953-5.119,0-7.071l9.991-9.991
				c1.953-1.952,5.118-1.952,7.071,0c1.953,1.953,1.953,5.119,0,7.071l-9.991,9.991C218.929,412.298,217.649,412.787,216.37,412.787
				z"/>
			<path style="fill:#6C6CFF;" d="M75.701,158.56c-1.28,0-2.559-0.488-3.536-1.464c-1.953-1.953-1.953-5.119,0-7.071l9.991-9.991
				c1.954-1.952,5.119-1.951,7.071,0c1.953,1.953,1.953,5.119,0,7.071l-9.991,9.991C78.26,158.072,76.98,158.56,75.701,158.56z"/>
			<g>
				<path style="fill:#FF6C6C;" d="M60.49,196.976c-1.28,0-2.559-0.488-3.536-1.464l-6.455-6.456l-6.456,6.456
					c-1.953,1.952-5.118,1.952-7.071,0c-1.953-1.953-1.953-5.119,0-7.071l9.991-9.991c0.938-0.938,2.209-1.464,3.536-1.464l0,0
					c1.326,0,2.598,0.527,3.536,1.464l9.991,9.991c1.953,1.953,1.953,5.119,0,7.071C63.049,196.488,61.769,196.976,60.49,196.976z"
					/>
			</g>
			<g>
				<path style="fill:#FF6C6C;" d="M349.949,59.932c-1.28,0-2.559-0.488-3.536-1.464l-6.455-6.456l-6.456,6.456
					c-1.953,1.953-5.118,1.952-7.071,0c-1.953-1.953-1.953-5.119,0-7.071l9.991-9.991c1.954-1.952,5.119-1.951,7.071,0l9.991,9.991
					c1.953,1.953,1.953,5.119,0,7.071C352.508,59.443,351.229,59.932,349.949,59.932z"/>
			</g>
		</g>
	</g>
</g>
<g>
</g>
<g>
</g>
<g>
</g>
<g>
</g>
<g>
</g>
<g>
</g>
<g>
</g>
<g>
</g>
<g>
</g>
<g>
</g>
<g>
</g>
<g>
</g>
<g>
</g>
<g>
</g>
<g>
</g>
</svg>
