<svg height="512" viewBox="0 0 59 60" width="512" xmlns="http://www.w3.org/2000/svg"><g id="018---Polo-Shirt" fill="none"><g id="Icons" transform="translate(1 1)"><path id="Shape" d="m9.64 8.62s-6.64 6.57-8.71 13.82c0 0 3.43 6.81 13.08 4.39z" fill="#ef314c"/><path id="Shape" d="m57.07 22.44c-.5204935.9054917-1.1976769 1.7113399-2 2.38-2 1.68-5.46 3.4-11.08 2l3.51-14.61.86-3.59s6.64 6.57 8.71 13.82z" fill="#bb193b"/><path id="Shape" d="m55.08 24.82c-2 1.68-5.46 3.4-11.08 2l3.5-14.61c1.98 2.22 6.04 7.23 7.58 12.61z" fill="#ef314c"/><path id="Shape" d="m48.25 10.88c-.0622532 2.9247743-.3970351 5.8373764-1 8.7-.52 2.49-1.12 5.27-2.92 7.17h.06c-.3017094.8225987-.5194833 1.6735922-.65 2.54-.581854 3.8823146-.622239 7.8265855-.12 11.72l1.79 13.1c.0435513.4154956-.1757795.8142789-.55 1-3.96 1.97-8.06 2.89-15.86 2.89h-1.58c-6.79-.12-10.59-1-14.24-2.77-.3742205-.1857211-.5935513-.5845044-.55-1l1.79-13.1c.485344-3.7590978.4651647-7.5662582-.06-11.32-.1221859-.9784472-.3501872-1.9407466-.68-2.87v-.08c-1.8-1.91-2.4-4.69-2.92-7.18-.5923287-2.8643411-.92699826-5.7759661-1-8.7 0-.31-.23-2.1 0-2.26 2.0676029-1.57666145 4.3211668-2.8931995 6.71-3.92l.45-.18h24.16l.45.18c2.4032815.9773101 4.6770609 2.24686491 6.77 3.78.18.2-.04 1.99-.05 2.3z" fill="#ad1457"/><path id="Shape" d="m45.25 10.88c-.0622532 2.9247743-.3970351 5.8373764-1 8.7-.52 2.49-1.12 5.27-2.92 7.17h.06c-.3017094.8225987-.5194833 1.6735922-.65 2.54-.581854 3.8823146-.622239 7.8265855-.12 11.72l1.79 13.1c.0435513.4154956-.1757795.8142789-.55 1-3.69 1.89-7.49 2.76-14.28 2.89h-.16c-6.79-.12-10.59-1-14.24-2.77-.3742205-.1857211-.5935513-.5845044-.55-1l1.79-13.1c.485344-3.7590978.4651647-7.5662582-.06-11.32-.1221859-.9784472-.3501872-1.9407466-.68-2.87v-.08c-1.8-1.91-2.4-4.69-2.92-7.18-.5923287-2.8643411-.92699826-5.7759661-1-8.7 0-.31-.23-2.1 0-2.26 2.0676029-1.57666145 4.3211668-2.8931995 6.71-3.92l.45-.18h21.16l.45.18c2.4032815.9773101 4.6770609 2.24686491 6.77 3.78.18.2-.04 1.99-.05 2.3z" fill="#e91e63"/><path id="Shape" d="m42 6s-2 7-9 9c-.0215763-.3974394-.1059546-.7889548-.25-1.16-.6901283-1.7274163-2.0394338-3.1091051-3.75-3.84 0 0 4.42-1.47 6.3-4.42-2.0764658-.39545212-4.1862358-.58968491-6.3-.58-.52 0-1.02 0-1.5 0-1.6114327.06395082-3.2158676.24779231-4.8.55 1.2354159 1.66922998 2.8918333 2.9805605 4.8 3.8.88.41 1.5.62 1.5.62-.5299672.2588319-1.0325055.5704057-1.5.93-1.4099182.9188239-2.3288312 2.4258411-2.5 4.1-.9605875-.2729441-1.8841297-.662511-2.75-1.16-2.9493232-1.7869882-5.1652201-4.56660925-6.25-7.84l3.41-5.11c.370262-.55496203.9928604-.8887648 1.66-.89h15.86c.6671396.0012352 1.289738.33503797 1.66.89z" fill="#ef314c"/><path id="Shape" d="m35.3 5.58c-1.88 2.95-6.3 4.42-6.3 4.42s-4.42-1.47-6.3-4.42c2.0764658-.39545212 4.1862358-.58968491 6.3-.58 2.1137642-.00968491 4.2235342.18454788 6.3.58z" fill="#37474f"/></g><path id="Shape" d="m49.39 29.35c4.0021843.1769947 7.7464666-1.9737273 9.61-5.52.0770425-.2166891.0770425-.4533109 0-.67-2.13-7.41-8.69-14-9-14.25-2.2501192-1.68102726-4.7111351-3.05946513-7.32-4.1l-2.25-3.47c-.5562116-.83729292-1.4947982-1.34037531-2.5-1.34h-15.86c-1.0052018-.00037531-1.9437884.50270708-2.5 1.34-2.57 3.85-2.24 3.44-2.47 3.53-2.5442118 1.02937165-4.949575 2.37315001-7.16 4-.28.27-6.84 6.84-9 14.25-.0770425.2166891-.0770425.4533109 0 .67 1.86197251 3.5429003 5.60135782 5.6930469 9.6 5.52 1.160928.0160052 2.320407-.0878788 3.46-.31.8874573 4.2761315 1.0429976 8.671837.46 13l-1.92 13.76c-.0453127.4131645.1696708.8112821.54 1 4 2 8.11 3.21 16.92 3.21s12.88-1.18 16.92-3.21c.3703292-.1887179.5853127-.5868355.54-1l-1.9-13.86c-.5723557-4.2945176-.4236444-8.6544623.44-12.9 1.1146885.2346563 2.2508819.3519624 3.39.35zm-2.39-2.22c2.17-3.41 3.1-11 3.2-15.06 2 2.31 5.32 6.65 6.76 11.27-.6 1.14-3.27 4.94-9.96 3.79zm-25.76-24.68c.1839835-.27938521.4954809-.44826935.83-.45h15.86c.3345191.00173065.6460165.17061479.83.45l3.13 4.69c-1.2435563 3.3895497-3.8250886 6.1193213-7.14 7.55-.4736009-1.4155117-1.3795001-2.6466952-2.59-3.52 2.5-1.17 5.14-3.24 5.84-5.93.071912-.26565525.0311592-.5492047-.1126584-.78385451-.1438177-.23464981-.3779853-.39965467-.6473416-.45614549-.2656553-.07191196-.5492047-.03115919-.7838545.11265843s-.3996547.37798525-.4561455.64734157c-.0672376.24657794-.1541842.48735309-.26.72-3.8183722-.61946438-7.7116278-.61946438-11.53 0-.0912305-.23329162-.161508-.47424297-.21-.72-.1325484-.55228473-.6877153-.89254829-1.24-.75999996-.5522847.13254834-.8925483.68771522-.76 1.23999996.67 2.7 3.31 4.71 5.81 5.93-1.2104999.8733048-2.1163991 2.1044883-2.59 3.52-3.3149114-1.4306787-5.8964437-4.1604503-7.14-7.55zm8.76 7.49c-1.6079978-.61169055-3.0919387-1.5095087-4.38-2.65 2.9210284-.37997093 5.8789716-.37997093 8.8 0-1.3056668 1.13688789-2.8020219 2.03402382-4.42 2.65zm-27 13.4c1.42-4.55 4.67-8.83 6.67-11.17.14 4.06 1 11.55 3.21 15-6.6 1.08-9.25-2.7-9.88-3.83zm42.38 32c-3.58 1.66-7.44 2.66-15.38 2.66s-11.8-1-15.38-2.68l1.79-13.06c.5110442-3.9494883.4740276-7.9506428-.11-11.89 1.8191426 1.0497749 3.9022251 1.5531865 6 1.45.5522847 0 1-.4477153 1-1s-.4477153-1-1-1h-.59c-2.3866822.0036833-4.6693289-.976661-6.31-2.71-1.65-1.66-2.23-4.42-2.71-6.73-.5916238-2.9656458-.9261985-5.9768183-1-9 0-.23-.08-.84-.08-1.21 1.4302903-1.00256577 2.9346107-1.89512922 4.5-2.67.41 1.25 2.78 7.5 9.62 9.5.307696.0865228.6382135.0207452.8893381-.1769906.2511245-.1977359.3925954-.5036028.3806619-.8230094 0 0 .08-2.21 3-3.87 2.9 1.65 3 3.79 3 3.87-.0119335.3194066.1295374.6252735.3806619.8230094.2511246.1977358.5816421.2635134.8893381.1769906 6.85-2 9.21-8.22 9.62-9.46 1.5584561.75474418 3.0533278 1.6342772 4.47 2.63 0 .53-.1 1.47-.11 1.73-.0690074 2.8648229-.4037766 5.7170569-1 8.52-.54 2.62-1 4.86-2.73 6.74-1.6345105 1.7302689-3.9097784 2.7105512-6.29 2.71h-.59c-.5522847 0-1 .4477153-1 1s.4477153 1 1 1c2.1250431.095507 4.2315923-.4328684 6.06-1.52-.5922952 3.9452114-.6326826 7.9536553-.12 11.91z" fill="#000"/></g></svg>