<svg id="Fill_out_line" height="512" viewBox="0 0 512 512" width="512" xmlns="http://www.w3.org/2000/svg" data-name="Fill out line"><rect fill="#b3b3b3" height="32" rx="16" width="232" x="224" y="432"/><rect fill="#ccc" height="32" rx="16" width="232" x="24" y="432"/><path d="m162.71774 413.65522 27.25926-184a16 16 0 0 1 15.82726-13.65522h263.65074a16 16 0 0 1 15.82726 18.34478l-27.25926 184a16 16 0 0 1 -15.82726 13.65522h-263.65074a16 16 0 0 1 -15.82726-18.34478z" fill="#ccc"/><path d="m162.71774 413.65522 27.25926-184a16 16 0 0 1 15.82726-13.65522h234.19253a16 16 0 0 1 15.82726 18.34478l-27.25926 184a16 16 0 0 1 -15.82726 13.65522h-234.19253a16 16 0 0 1 -15.82726-18.34478z" fill="#65dcff"/><path d="m216 40h64v48h-64z" fill="#104f91"/><path d="m464 128-16 48-112-32v128a334.23169 334.23169 0 0 1 -88 11.77979 334.23169 334.23169 0 0 1 -88-11.77979v-128l-34.53 10.35986-13.47-58.35986 40-16 48-8h96l48 8z" fill="#3ea7ff"/><path d="m136 200-40 16-16-48 32-72 13.47 58.36z" fill="#87c9ff"/><g fill="#2b7cd4"><path d="m240 72h16v211.69h-16z"/><path d="m192 72 24-32 32 32-24 32z"/><path d="m304 72-24-32-32 32 24 32z"/></g><path d="m368 248v64l48-32z" fill="#eb352f"/><path d="m128 312v-64l-48 32z" fill="#eb352f"/><path d="m328 400 8-56h72l-8 56z" fill="#a0cc00"/><path d="m469.45508 208h-109.45508v16h79.99707a8.00034 8.00034 0 0 1 7.91309 9.17188l-27.25977 184.001a8.04676 8.04676 0 0 1 -7.91309 6.82712h-234.19238a7.99913 7.99913 0 0 1 -7.91308-9.17188l16.24516-109.65624-15.82812-2.34376-16.24517 109.65528a23.98424 23.98424 0 0 0 1.11429 11.5166h-115.918a24 24 0 0 0 0 48h400a23.98 23.98 0 0 0 18.85864-38.81738 23.88988 23.88988 0 0 0 7.07886-13.665l27.25879-184.001a24.00021 24.00021 0 0 0 -23.74121-27.51662zm-437.45508 240a8.00917 8.00917 0 0 1 8-8h177.37622a23.94021 23.94021 0 0 0 0 16h-177.37622a8.00917 8.00917 0 0 1 -8-8zm408 8h-200a8 8 0 0 1 0-16h200a8 8 0 0 1 0 16zm37.36816-222.82812-27.25781 184a8.04952 8.04952 0 0 1 -7.91504 6.82812h-6.84839a23.62029 23.62029 0 0 0 1.1316-4.48242l27.25976-184.001a23.98212 23.98212 0 0 0 -1.1145-11.51658h6.8313a7.99913 7.99913 0 0 1 7.91308 9.17188z"/><path d="m408 336h-72a8.00073 8.00073 0 0 0 -7.91992 6.86816l-8 56a8.00061 8.00061 0 0 0 7.91992 9.13184h72a8.00073 8.00073 0 0 0 7.91992-6.86816l8-56a8.00061 8.00061 0 0 0 -7.91992-9.13184zm-14.93848 56h-55.83789l5.71485-40h55.83789z"/><path d="m200 360h32v16h-32z"/><path d="m248 360h16v16h-16z"/><path d="m280 360h32v16h-32z"/><path d="m192 392h32v16h-32z"/><path d="m288 392h16v16h-16z"/><path d="m240 392h32v16h-32z"/><path d="m216 32v.01172c-.189-.00025-.37793-.0044-.56738.00879a7.99825 7.99825 0 0 0 -5.833 3.17969l-23.219 30.95849-35.696 5.94971a7.9868 7.9868 0 0 0 -1.65527.46387l-40 16a7.99 7.99 0 0 0 -4.35547 4.21386l-31.98443 71.96487a8.00345 8.00345 0 0 0 -.27929 5.77929l16 48a7.99988 7.99988 0 0 0 10.56054 4.89746l40-16a7.998 7.998 0 0 0 4.82422-9.22656l-8.84619-38.33349 17.05127-5.1157v117.248a8.00019 8.00019 0 0 0 5.89551 7.71777 342.49989 342.49989 0 0 0 90.10449 12.05762 342.49989 342.49989 0 0 0 90.10449-12.05762 8.00019 8.00019 0 0 0 5.89551-7.71777v-117.39453l101.80273 29.08691a7.99738 7.99738 0 0 0 9.78711-5.16211l16-48a8.00071 8.00071 0 0 0 -4.61914-9.958l-120-48a7.9868 7.9868 0 0 0 -1.65527-.46387l-35.69605-5.94971-23.219-30.95849a7.99825 7.99825 0 0 0 -5.833-3.17969c-.18945-.01319-.37842-.00928-.56738-.00879v-.01172zm32 28.68555-12.68555-12.68555h25.3711zm-31.13477-8.50586 20.57129 20.57131-14.30175 19.06931-20.57129-20.57131zm-115.95898 153.24121-12.33594-37.00684 21.01758-47.28906 17.0752 73.99316zm63.86914-67.8389a8.00479 8.00479 0 0 0 -7.07422-1.24512l-26.35766 7.90723-10.0066-43.3623 32.83109-13.13281 36.22851-6.03808 27.94629 27.94629a8.00334 8.00334 0 0 0 5.6562 2.34279q.28419 0 .56836-.02051a7.99825 7.99825 0 0 0 5.833-3.17969l9.59964-12.79956v179.66724a326.47486 326.47486 0 0 1 -72-9.8374v-121.83008a7.99645 7.99645 0 0 0 -3.22461-6.418zm289.25-4.95605-11.19239 33.57717-104.63574-29.8955a8.00031 8.00031 0 0 0 -10.19726 7.69238v121.83008a326.47486 326.47486 0 0 1 -72 9.8374v-179.66724l9.59961 12.79956a7.99825 7.99825 0 0 0 5.833 3.17969q.28419.02051.56839.02051a8.00334 8.00334 0 0 0 5.65625-2.34277l27.94629-27.94629 36.22846 6.03806zm-160.58887-61.37695-20.57129 20.57131-14.30175-19.06931 20.57129-20.57129z"/><path d="m424 280a7.99943 7.99943 0 0 0 -3.5625-6.65625l-48-32a7.99977 7.99977 0 0 0 -12.4375 6.65625v64a7.99975 7.99975 0 0 0 12.4375 6.65625l48-32a7.99943 7.99943 0 0 0 3.5625-6.65625zm-48 17.05176v-34.10352l25.57812 17.05176z"/><path d="m75.5625 286.65625 48 32a7.99977 7.99977 0 0 0 12.4375-6.65625v-64a7.99977 7.99977 0 0 0 -12.4375-6.65625l-48 32a7.99959 7.99959 0 0 0 0 13.3125zm44.4375-23.70801v34.10352l-25.57812-17.05176z"/></svg>