<?xml version="1.0" encoding="iso-8859-1"?>
<!-- Generator: Adobe Illustrator 22.0.0, SVG Export Plug-In . SVG Version: 6.00 Build 0)  -->
<svg version="1.1" id="Capa_1" xmlns="http://www.w3.org/2000/svg" xmlns:xlink="http://www.w3.org/1999/xlink" x="0px" y="0px"
	 viewBox="0 0 512 512" style="enable-background:new 0 0 512 512;" xml:space="preserve">
<g>
	<linearGradient id="SVGID_1_" gradientUnits="userSpaceOnUse" x1="-19.5208" y1="614.3719" x2="541.4511" y2="-104.0921">
		<stop  offset="0.007" style="stop-color:#9494FF"/>
		<stop  offset="0.992" style="stop-color:#FFE8DC;stop-opacity:0"/>
	</linearGradient>
	<path style="fill:url(#SVGID_1_);" d="M512,256c0-27.631-12.504-53.535-34.347-75.837c-15.199-15.518-27.854-33.295-37.513-52.751
		C409.251,65.195,356.586,24.216,296.804,24.216c-42.483,0-81.369,20.698-111.403,55.003c-19.88,22.707-44.981,40.125-72.987,51.371
		C44.575,157.832,0,203.833,0,256s44.575,98.168,112.414,125.41c28.006,11.246,53.107,28.664,72.988,51.371
		c30.034,34.305,68.92,55.003,111.403,55.003c59.782,0,112.447-40.979,143.336-103.196c9.659-19.456,22.314-37.233,37.513-52.751
		C499.496,309.535,512,283.631,512,256z"/>
	<g>
		<g>
			<g>
				<path style="fill:#6C6CFF;" d="M53.771,294.242c-1.28,0-2.559-0.488-3.536-1.464l-6.464-6.464l-6.464,6.464
					c-1.953,1.952-5.118,1.952-7.071,0c-1.953-1.953-1.953-5.119,0-7.071l10-10c1.953-1.952,5.118-1.952,7.071,0l10,10
					c1.953,1.953,1.953,5.119,0,7.071C56.33,293.753,55.05,294.242,53.771,294.242z"/>
			</g>
			<g>
				<path style="fill:#6C6CFF;" d="M482.25,393.307c-1.28,0-2.559-0.488-3.536-1.464l-6.464-6.464l-6.464,6.464
					c-1.953,1.952-5.118,1.952-7.071,0c-1.953-1.953-1.953-5.119,0-7.071l10-10c1.953-1.952,5.118-1.952,7.071,0l10,10
					c1.953,1.953,1.953,5.119,0,7.071C484.809,392.818,483.53,393.307,482.25,393.307z"/>
			</g>
		</g>
		<g>
			<path style="fill:#FF9D33;" d="M29.75,394.667c-1.28,0-2.559-0.488-3.536-1.464c-1.953-1.953-1.953-5.119,0-7.071l10-10
				c1.953-1.952,5.118-1.952,7.071,0c1.953,1.953,1.953,5.119,0,7.071l-10,10C32.309,394.178,31.03,394.667,29.75,394.667z"/>
			<path style="fill:#FF6C6C;" d="M465.25,227.333c-1.28,0-2.559-0.488-3.536-1.464c-1.953-1.953-1.953-5.119,0-7.071l10-10
				c1.953-1.952,5.118-1.952,7.071,0c1.953,1.953,1.953,5.119,0,7.071l-10,10C467.809,226.845,466.53,227.333,465.25,227.333z"/>
		</g>
		<path style="fill:#FF6C6C;" d="M41.5,150.422c-1.28,0-2.559-0.488-3.536-1.464c-1.953-1.953-1.953-5.119,0-7.071l10-10
			c1.953-1.952,5.118-1.952,7.071,0c1.953,1.953,1.953,5.119,0,7.071l-10,10C44.059,149.934,42.78,150.422,41.5,150.422z"/>
		<g>
			<g>
				<g>
					<path style="opacity:0.1;fill:#0000CC;" d="M422.952,460.5H91.048C80.528,460.5,72,451.972,72,441.452V91.548
						C72,81.028,80.528,72.5,91.048,72.5h331.905c10.52,0,19.048,8.528,19.048,19.048v349.905
						C442,451.972,433.472,460.5,422.952,460.5z"/>
					<path style="fill:#FFFFFF;" d="M422.952,439.5H91.048C80.528,439.5,72,430.972,72,420.452V70.548
						C72,60.028,80.528,51.5,91.048,51.5h331.905c10.52,0,19.048,8.528,19.048,19.048v349.905
						C442,430.972,433.472,439.5,422.952,439.5z"/>
					<path style="fill:#B3B3FF;" d="M442,107.69V70.548c0-10.52-8.528-19.048-19.048-19.048H91.048C80.528,51.5,72,60.028,72,70.548
						v37.143H442z"/>
					<g>
						<path style="fill:#0000CC;" d="M422.952,46.5H91.048C77.788,46.5,67,57.288,67,70.548v37.143c0,2.761,2.239,5,5,5h365v273.761
							c0,2.761,2.239,5,5,5s5-2.239,5-5V70.548C447,57.288,436.212,46.5,422.952,46.5z M77,102.69V70.548
							C77,62.802,83.302,56.5,91.048,56.5h331.904c7.746,0,14.048,6.302,14.048,14.048v32.143H77z"/>
						<path style="fill:#0000CC;" d="M442,415.452c-2.761,0-5,2.239-5,5c0,7.746-6.302,14.048-14.048,14.048H91.048
							C83.302,434.5,77,428.198,77,420.452V141.691c0-2.761-2.239-5-5-5s-5,2.239-5,5v278.761c0,13.26,10.788,24.048,24.048,24.048
							h331.904c13.26,0,24.048-10.788,24.048-24.048C447,417.691,444.761,415.452,442,415.452z"/>
					</g>
					<path style="fill:#FF4D4D;" d="M400.5,84.595h-16.52c-2.762,0-5-2.239-5-5s2.238-5,5-5h16.52c2.762,0,5,2.239,5,5
						S403.262,84.595,400.5,84.595z"/>
					<path style="fill:#FF9D33;" d="M362,84.595h-16.52c-2.762,0-5-2.239-5-5s2.238-5,5-5H362c2.762,0,5,2.239,5,5
						S364.762,84.595,362,84.595z"/>
					<path style="fill:#EBEBFF;" d="M306.5,84.595H169.98c-2.762,0-5-2.239-5-5s2.238-5,5-5H306.5c2.762,0,5,2.239,5,5
						S309.262,84.595,306.5,84.595z"/>
				</g>
			</g>
			<g>
				<path style="fill:#D9D9FF;" d="M257,414.316c-2.761,0-5-2.239-5-5V379.09c0-2.761,2.239-5,5-5s5,2.239,5,5v30.226
					C262,412.078,259.761,414.316,257,414.316z"/>
				<g>
					<g>
						<g>
							<path style="fill:#D9D9FF;" d="M129.58,409.317h-12.5c-2.762,0-5-2.239-5-5s2.238-5,5-5h12.5c2.762,0,5,2.239,5,5
								S132.342,409.317,129.58,409.317z"/>
						</g>
						<g>
							<path style="fill:#D9D9FF;" d="M222.58,409.317h-72.5c-2.762,0-5-2.239-5-5s2.238-5,5-5h72.5c2.762,0,5,2.239,5,5
								S225.342,409.317,222.58,409.317z"/>
						</g>
						<g>
							<path style="fill:#D9D9FF;" d="M159.58,389.09h-42.5c-2.762,0-5-2.239-5-5s2.238-5,5-5h42.5c2.762,0,5,2.239,5,5
								S162.342,389.09,159.58,389.09z"/>
						</g>
					</g>
					<g>
						<g>
							<g>
								<path style="fill:#D9D9FF;" d="M396.92,409.317h-108c-2.762,0-5-2.239-5-5s2.238-5,5-5h108c2.762,0,5,2.239,5,5
									S399.682,409.317,396.92,409.317z"/>
							</g>
							<g>
								<path style="fill:#D9D9FF;" d="M396.92,389.09h-108c-2.762,0-5-2.239-5-5s2.238-5,5-5h108c2.762,0,5,2.239,5,5
									S399.682,389.09,396.92,389.09z"/>
							</g>
						</g>
					</g>
				</g>
			</g>
			<g>
				<path style="fill:#FF4D4D;" d="M129.58,360.51h-12.5c-2.762,0-5-2.239-5-5s2.238-5,5-5h12.5c2.762,0,5,2.239,5,5
					S132.342,360.51,129.58,360.51z"/>
			</g>
			<g>
				<g>
					<g>
						<path style="fill:#FFB3B3;" d="M393.907,219.133l-11.4,11.4c-1.447,1.447-3.793,1.447-5.239,0l-6.7-6.7v45.551
							c0,2.046-1.659,3.705-3.705,3.705H317.72c-1.71,0-3.096-1.386-3.096-3.096v-46.16l-7.13,7.13c-1.209,1.209-3.17,1.209-4.379,0
							l-12.261-12.261c-1.209-1.209-1.209-3.17,0-4.379l22.863-22.863c0.581-0.581,1.368-0.907,2.189-0.907h10.398
							c1.203,0,2.296,0.698,2.802,1.79c2.357,5.089,7.511,8.62,13.49,8.62s11.133-3.531,13.49-8.62
							c0.506-1.092,1.598-1.79,2.802-1.79h10.146c0.983,0,1.925,0.39,2.62,1.085l22.255,22.255
							C395.354,215.34,395.354,217.686,393.907,219.133z"/>
					</g>
					<g>
						<path style="fill:#FFB3B3;" d="M222.968,219.133l-11.4,11.4c-1.447,1.447-3.793,1.447-5.239,0l-6.7-6.7v45.551
							c0,2.046-1.659,3.705-3.705,3.705h-49.143c-1.71,0-3.096-1.386-3.096-3.096v-46.16l-7.13,7.13
							c-1.209,1.209-3.17,1.209-4.379,0l-12.261-12.261c-1.209-1.209-1.209-3.17,0-4.379l22.863-22.863
							c0.581-0.581,1.368-0.907,2.189-0.907h10.398c1.203,0,2.296,0.698,2.802,1.79c2.357,5.089,7.511,8.62,13.49,8.62
							c5.979,0,11.133-3.531,13.49-8.62c0.506-1.092,1.598-1.79,2.802-1.79h10.146c0.983,0,1.925,0.39,2.62,1.085l22.255,22.255
							C224.415,215.34,224.415,217.686,222.968,219.133z"/>
					</g>
				</g>
				<path style="fill:#FF4D4D;" d="M340.554,195.441l-19.799,19.799c-1.953,1.953-5.118,1.953-7.071,0l-11.514-11.515v74.54
					c0,2.761-2.239,5-5,5h-80.34c-2.761,0-5-2.239-5-5v-74.54l-11.514,11.515c-1.953,1.953-5.118,1.953-7.071,0l-19.799-19.799
					c-1.953-1.953-1.953-5.118,0-7.071l36.92-36.92c0.938-0.938,2.209-1.464,3.536-1.464h16.791c1.943,0,3.708,1.127,4.524,2.89
					c3.806,8.218,12.129,13.92,21.784,13.92c9.654,0,17.978-5.702,21.784-13.92c0.816-1.763,2.581-2.89,4.524-2.89h16.791
					c1.326,0,2.598,0.527,3.536,1.464l36.92,36.92C342.507,190.323,342.507,193.489,340.554,195.441z"/>
				<g>
					<circle style="fill:#9494FF;" cx="303.915" cy="216.811" r="21.35"/>
					<path style="fill:#FFFFFF;" d="M299.217,226.508c-1.28,0-2.559-0.488-3.536-1.464c-1.953-1.953-1.953-5.119,0-7.071l10-10
						c1.953-1.952,5.118-1.952,7.071,0c1.953,1.953,1.953,5.119,0,7.071l-10,10C301.776,226.02,300.497,226.508,299.217,226.508z"/>
				</g>
				<g>
					<g>
						<path style="fill:#6C6CFF;" d="M217.5,322.892L217.5,322.892c0,7.64,6.193,13.833,13.833,13.833H281
							c7.64,0,13.833-6.193,13.833-13.833v0c0-7.64-6.193-13.833-13.833-13.833h-49.667
							C223.694,309.059,217.5,315.253,217.5,322.892z"/>
					</g>
				</g>
			</g>
		</g>
	</g>
</g>
<g>
</g>
<g>
</g>
<g>
</g>
<g>
</g>
<g>
</g>
<g>
</g>
<g>
</g>
<g>
</g>
<g>
</g>
<g>
</g>
<g>
</g>
<g>
</g>
<g>
</g>
<g>
</g>
<g>
</g>
</svg>
