<?xml version="1.0" encoding="iso-8859-1"?>
<!-- Generator: Adobe Illustrator 22.0.0, SVG Export Plug-In . SVG Version: 6.00 Build 0)  -->
<svg version="1.1" id="Capa_1" xmlns="http://www.w3.org/2000/svg" xmlns:xlink="http://www.w3.org/1999/xlink" x="0px" y="0px"
	 viewBox="0 0 512 512" style="enable-background:new 0 0 512 512;" xml:space="preserve">
<g>
	<linearGradient id="SVGID_1_" gradientUnits="userSpaceOnUse" x1="375.3593" y1="660.4991" x2="123.3593" y2="32.4992">
		<stop  offset="0.0023" style="stop-color:#FF9494"/>
		<stop  offset="0.992" style="stop-color:#FFE8DC;stop-opacity:0"/>
	</linearGradient>
	<path style="fill:url(#SVGID_1_);" d="M419.843,204.806c1.055-7.758,1.571-15.687,1.509-23.748
		C420.66,91.033,347.096,17.572,257.071,17.001C165.256,16.42,90.643,90.674,90.643,182.355c0,7.615,0.516,15.109,1.513,22.45
		c4.043,29.747-9.887,59.143-35.212,75.263C21.333,302.736,0,331.608,0,363.048c0,72.876,114.615,131.954,256,131.954
		s256-59.078,256-131.954c0-31.44-21.334-60.312-56.946-82.98C429.729,263.948,415.8,234.552,419.843,204.806z"/>
	<g>
		<g>
			<g>
				<path style="opacity:0.1;fill:#0000CC;" d="M351.887,476.5H160.113c-12.208,0-22.105-9.897-22.105-22.105V78.605
					c0-12.208,9.897-22.105,22.105-22.105h191.775c12.208,0,22.105,9.897,22.105,22.105v375.789
					C373.993,466.603,364.096,476.5,351.887,476.5z"/>
				<path style="fill:#6C6CFF;" d="M386.443,145.09h-21.522V78.177h21.522c3.803,0,6.885,3.083,6.885,6.885v53.143
					C393.328,142.008,390.246,145.09,386.443,145.09z"/>
				<path style="fill:#6C6CFF;" d="M122.407,213.943h24.672V78.177h-24.672c-3.803,0-3.735,3.083-3.735,6.885v121.995
					C118.672,210.86,118.605,213.943,122.407,213.943z"/>
				<path style="fill:#FF9D33;" d="M351.887,455.5H160.113c-12.208,0-22.105-9.897-22.105-22.105V57.605
					c0-12.208,9.897-22.105,22.105-22.105h191.775c12.208,0,22.105,9.897,22.105,22.105v375.789
					C373.993,445.603,364.096,455.5,351.887,455.5z"/>
				<rect x="138.011" y="87.622" style="fill:#6C6CFF;" width="235.977" height="315.756"/>
				<path style="fill:#4D4DFF;" d="M373.988,87.622v120.046c-10.752-0.357-20.58-4.378-28.298-10.826
					c-8.106,6.773-18.532,10.857-29.893,10.857c-11.361,0-21.788-4.085-29.904-10.857C277.787,203.615,267.361,207.7,256,207.7
					s-21.787-4.085-29.893-10.857c-8.117,6.773-18.543,10.857-29.904,10.857s-21.788-4.085-29.893-10.857
					c-7.718,6.447-17.546,10.469-28.298,10.826V87.622H373.988z"/>
				<path style="fill:#FF4D4D;" d="M342.996,250.108c-1.024,0-2.059-0.313-2.948-0.965L256,187.644l-84.048,61.5
					c-2.228,1.63-5.356,1.146-6.987-1.083s-1.146-5.356,1.083-6.987l87-63.66c1.758-1.287,4.146-1.287,5.904,0l87,63.66
					c2.229,1.631,2.714,4.759,1.083,6.987C346.056,249.399,344.536,250.108,342.996,250.108z"/>
				<path style="fill:none;stroke:#0000CC;stroke-width:10;stroke-linecap:round;stroke-linejoin:round;stroke-miterlimit:10;" d="
					M136.65,146.06"/>
				<polygon style="fill:#FFC599;" points="166.304,137.267 106.507,137.267 138.007,87.627 185.204,87.627 				"/>
				<polygon style="fill:#FF4D4D;" points="226.101,137.267 166.304,137.267 185.204,87.627 232.401,87.627 				"/>
				<polygon style="fill:#FFC599;" points="285.899,137.267 226.101,137.267 232.401,87.627 279.599,87.627 				"/>
				<polygon style="fill:#FF4D4D;" points="345.696,137.267 285.899,137.267 279.599,87.627 326.796,87.627 				"/>
				<polygon style="fill:#FFC599;" points="405.493,137.267 345.696,137.267 326.796,87.627 373.993,87.627 				"/>
				<path style="fill:#FFD6BB;" d="M136.406,190.9L136.406,190.9c-16.513,0-29.899-13.386-29.899-29.899v-23.735h59.797v23.735
					C166.304,177.514,152.918,190.9,136.406,190.9z"/>
				<path style="fill:#FF6C6C;" d="M196.203,190.9L196.203,190.9c-16.513,0-29.899-13.386-29.899-29.899v-23.735h59.797v23.735
					C226.101,177.514,212.715,190.9,196.203,190.9z"/>
				<path style="fill:#FFD6BB;" d="M256,190.9L256,190.9c-16.513,0-29.899-13.386-29.899-29.899v-23.735h59.797v23.735
					C285.899,177.514,272.513,190.9,256,190.9z"/>
				<path style="fill:#FF6C6C;" d="M315.797,190.9L315.797,190.9c-16.513,0-29.899-13.386-29.899-29.899v-23.735h59.797v23.735
					C345.696,177.514,332.31,190.9,315.797,190.9z"/>
				<path style="fill:#FFD6BB;" d="M375.594,190.9L375.594,190.9c-16.513,0-29.899-13.386-29.899-29.899v-23.735h59.797v23.735
					C405.493,177.514,392.107,190.9,375.594,190.9z"/>
				<path style="fill:#FF4D4D;" d="M276.26,66.5h-40.52c-2.762,0-5-2.239-5-5s2.238-5,5-5h40.52c2.762,0,5,2.239,5,5
					S279.021,66.5,276.26,66.5z"/>
				<path style="fill:#FF4D4D;" d="M235.667,422.5v12.667c0,2.761,2.239,5,5,5h30.667c2.761,0,5-2.239,5-5V422.5
					c0-2.761-2.239-5-5-5h-30.667C237.905,417.5,235.667,419.738,235.667,422.5z"/>
				<path style="fill:#FF4D4D;" d="M335.01,433.833h-16.52c-2.762,0-5-2.239-5-5s2.238-5,5-5h16.52c2.762,0,5,2.239,5,5
					S337.771,433.833,335.01,433.833z"/>
				<path style="fill:#FF4D4D;" d="M193.51,433.833h-16.52c-2.762,0-5-2.239-5-5s2.238-5,5-5h16.52c2.762,0,5,2.239,5,5
					S196.271,433.833,193.51,433.833z"/>
				<g>
					<g>
						<g>
							<g>
								<path style="fill:#4D4DFF;" d="M190.329,378.307h-21c-2.762,0-5-2.239-5-5s2.238-5,5-5h21c2.762,0,5,2.239,5,5
									S193.091,378.307,190.329,378.307z"/>
							</g>
						</g>
					</g>
					<g>
						<g>
							<g>
								<path style="fill:#4D4DFF;" d="M342.671,378.307h-21c-2.762,0-5-2.239-5-5s2.238-5,5-5h21c2.762,0,5,2.239,5,5
									S345.433,378.307,342.671,378.307z"/>
							</g>
						</g>
					</g>
				</g>
				<path style="fill:#FF4D4D;" d="M380.919,349.971H131.081c-5.523,0-10-4.477-10-10v-84.863c0-5.523,4.477-10,10-10h249.838
					c5.523,0,10,4.477,10,10v84.863C390.919,345.494,386.442,349.971,380.919,349.971z"/>
				<path style="fill:#0000CC;" d="M410.487,137.208c-0.011-0.903-0.288-1.856-0.772-2.621l-11.387-17.944V85.062
					c0-6.554-5.331-11.885-11.885-11.885h-7.451V57.605c0-14.946-12.159-27.105-27.104-27.105H160.112
					c-14.945,0-27.104,12.159-27.104,27.105v15.571h-10.601c-3.777,0-6.669,1.878-7.934,5.151c-0.803,2.079-0.803,4.347-0.802,6.54
					v31.776l-11.387,17.944c-0.496,0.781-0.778,1.754-0.778,2.679v23.735c0,10.564,4.725,20.04,12.165,26.445v19.805
					c-0.001,2.193-0.001,4.462,0.802,6.541c1.265,3.273,4.156,5.15,7.934,5.15h10.601v21.165h-1.927c-8.271,0-15,6.729-15,15v84.864
					c0,8.271,6.729,15,15,15h1.927v78.423c0,14.946,12.159,27.105,27.104,27.105h191.775c14.945,0,27.104-12.159,27.104-27.105
					v-78.423h1.927c8.271,0,15-6.729,15-15v-84.864c0-8.271-6.729-15-15-15H143.008v-44.842c9.868-1.898,18.272-7.959,23.297-16.285
					c6.115,10.13,17.228,16.919,29.898,16.919s23.784-6.789,29.898-16.919c6.115,10.13,17.228,16.919,29.898,16.919
					s23.784-6.789,29.898-16.919c6.115,10.13,17.228,16.919,29.898,16.919s23.784-6.789,29.898-16.919
					c5.025,8.326,13.429,14.387,23.297,16.285v15.842c0,2.762,2.238,5,5,5s5-2.238,5-5v-15.375
					c17.654-1.714,31.501-16.634,31.501-34.73v-23.735C410.493,137.247,410.488,137.228,410.487,137.208z M351.888,450.5H160.112
					c-9.432,0-17.104-7.674-17.104-17.105v-25.021h225.984v25.021C368.992,442.826,361.319,450.5,351.888,450.5z M385.919,255.107
					v84.864c0,2.757-2.243,5-5,5H172.012c-2.762,0-5,2.238-5,5s2.238,5,5,5h196.98v43.401H143.008V350.01
					c0-0.013,0.004-0.025,0.004-0.039c0-2.762-2.238-5-5-5h-6.931c-2.757,0-5-2.243-5-5v-84.864c0-2.757,2.243-5,5-5h249.838
					C383.676,250.107,385.919,252.351,385.919,255.107z M140.756,92.627h37.194l-15.092,39.64h-47.256L140.756,92.627z
					 M188.651,92.627h38.076l-5.031,39.64h-48.138L188.651,92.627z M236.807,92.627h38.387l5.031,39.64h-48.448L236.807,92.627z
					 M290.304,132.267l-5.031-39.64h38.076l15.092,39.64H290.304z M349.142,132.267l-15.092-39.64h37.194l25.154,39.64H349.142z
					 M386.443,83.177c1.039,0,1.885,0.846,1.885,1.885v15.824l-9.336-14.712v-2.996H386.443z M160.112,40.5h191.775
					c9.432,0,17.104,7.674,17.104,17.105v25.021H143.008V57.605C143.008,48.174,150.681,40.5,160.112,40.5z M123.672,84.865
					c0-0.5,0-1.129,0.018-1.688h9.318v2.996l-9.336,14.712V84.865z M123.689,208.942c-0.018-0.56-0.018-1.188-0.018-1.688v-13.77
					c2.941,1.157,6.071,1.931,9.336,2.248v13.21H123.689z M136.406,185.9c-13.729,0-24.899-11.169-24.899-24.898v-18.735h49.798
					v18.735C161.305,174.731,150.136,185.9,136.406,185.9z M196.203,185.9c-13.729,0-24.898-11.169-24.898-24.898v-18.735h49.797
					v18.735C221.102,174.731,209.933,185.9,196.203,185.9z M256,185.9c-13.729,0-24.898-11.169-24.898-24.898v-18.735h49.797v18.735
					C280.898,174.731,269.729,185.9,256,185.9z M315.797,185.9c-13.729,0-24.898-11.169-24.898-24.898v-18.735h49.797v18.735
					C340.695,174.731,329.526,185.9,315.797,185.9z M400.493,161.002c0,13.729-11.17,24.898-24.899,24.898
					s-24.898-11.169-24.898-24.898v-18.735h49.798V161.002z"/>
			</g>
			<g>
				<g>
					<g>
						<path style="fill:#FFFFFF;" d="M172.826,319.891h-12.454c-6.065,0-11-4.935-11-11v-25.651c0-6.065,4.935-11,11-11h12.454
							c6.065,0,11,4.935,11,11c0,2.762-2.238,5-5,5s-5-2.238-5-5c0-0.552-0.448-1-1-1h-12.454c-0.552,0-1,0.448-1,1v25.651
							c0,0.552,0.448,1,1,1h12.454c0.552,0,1-0.448,1-1c0-2.762,2.238-5,5-5s5,2.238,5,5
							C183.826,314.956,178.892,319.891,172.826,319.891z"/>
					</g>
				</g>
				<g>
					<g>
						<path style="fill:#FFFFFF;" d="M223.526,319.891h-18.454c-6.065,0-11-4.935-11-11v-31.651c0-2.762,2.238-5,5-5s5,2.238,5,5
							v31.651c0,0.552,0.448,1,1,1h18.454c2.762,0,5,2.238,5,5S226.288,319.891,223.526,319.891z"/>
					</g>
				</g>
				<g>
					<g>
						<path style="fill:#FFFFFF;" d="M262.227,319.891h-12.453c-6.065,0-11-4.935-11-11v-25.651c0-6.065,4.935-11,11-11h12.453
							c6.065,0,11,4.935,11,11v25.651C273.227,314.956,268.292,319.891,262.227,319.891z M249.773,282.239c-0.552,0-1,0.448-1,1
							v25.651c0,0.552,0.448,1,1,1h12.453c0.552,0,1-0.448,1-1v-25.651c0-0.552-0.448-1-1-1H249.773z"/>
					</g>
				</g>
				<g>
					<g>
						<path style="fill:#FFFFFF;" d="M306.928,319.891h-12.454c-6.065,0-11-4.935-11-11c0-2.762,2.238-5,5-5s5,2.238,5,5
							c0,0.552,0.448,1,1,1h12.454c0.552,0,1-0.448,1-1v-7.038c0-0.345-0.161-0.577-0.297-0.711
							c-0.134-0.133-0.364-0.289-0.703-0.289c-0.004,0-0.008,0-0.013,0l-12.314,0.143c-2.939-0.008-5.755-1.095-7.86-3.178
							c-2.106-2.082-3.267-4.86-3.267-7.822v-6.756c0-6.065,4.935-11,11-11h12.454c6.065,0,11,4.935,11,11c0,2.762-2.238,5-5,5
							s-5-2.238-5-5c0-0.552-0.448-1-1-1h-12.454c-0.552,0-1,0.448-1,1v6.756c0,0.345,0.161,0.577,0.297,0.711
							c0.134,0.133,0.364,0.289,0.703,0.289c0.004,0,0.008,0,0.013,0l12.314-0.143c2.944-0.017,5.755,1.095,7.86,3.178
							c2.106,2.082,3.267,4.86,3.267,7.822v7.038C317.928,314.956,312.993,319.891,306.928,319.891z"/>
					</g>
				</g>
			</g>
			<g>
				<g>
					<path style="fill:#FFFFFF;" d="M357.628,319.891h-18.454c-6.065,0-11-4.935-11-11v-25.651c0-6.065,4.935-11,11-11h18.454
						c2.762,0,5,2.238,5,5s-2.238,5-5,5h-18.454c-0.552,0-1,0.448-1,1v25.651c0,0.552,0.448,1,1,1h18.454c2.762,0,5,2.238,5,5
						S360.39,319.891,357.628,319.891z"/>
				</g>
			</g>
			<path style="fill:#FFFFFF;" d="M353.801,301.064h-20.627c-2.762,0-5-2.238-5-5s2.238-5,5-5h20.627c2.762,0,5,2.238,5,5
				S356.563,301.064,353.801,301.064z"/>
		</g>
		<g>
			<path style="fill:#FF6C6C;" d="M439.388,223.278c-1.279,0-2.56-0.488-3.535-1.465c-1.953-1.952-1.953-5.118,0-7.07l10-10
				c1.951-1.953,5.119-1.953,7.07,0c1.953,1.952,1.953,5.118,0,7.07l-10,10C441.947,222.79,440.667,223.278,439.388,223.278z"/>
			<path style="fill:#FF6C6C;" d="M82.612,300.073c-1.279,0-2.56-0.488-3.535-1.465c-1.953-1.952-1.953-5.118,0-7.07l10-10
				c1.951-1.953,5.119-1.953,7.07,0c1.953,1.952,1.953,5.118,0,7.07l-10,10C85.172,299.585,83.892,300.073,82.612,300.073z"/>
			<g>
				<path style="fill:#FF9D33;" d="M82.612,210.063c-1.279,0-2.56-0.488-3.535-1.465l-6.465-6.464l-6.465,6.464
					c-1.951,1.953-5.119,1.953-7.07,0c-1.953-1.952-1.953-5.118,0-7.07l10-10c1.951-1.953,5.119-1.953,7.07,0l10,10
					c1.953,1.952,1.953,5.118,0,7.07C85.172,209.575,83.892,210.063,82.612,210.063z"/>
			</g>
			<g>
				<path style="fill:#FF9D33;" d="M422.846,50.5c-1.279,0-2.56-0.488-3.535-1.465l-6.465-6.464l-6.465,6.464
					c-1.951,1.953-5.119,1.953-7.07,0c-1.953-1.952-1.953-5.118,0-7.07l10-10c1.951-1.953,5.119-1.953,7.07,0l10,10
					c1.953,1.952,1.953,5.118,0,7.07C425.405,50.012,424.125,50.5,422.846,50.5z"/>
			</g>
			<g>
				<path style="fill:#6C6CFF;" d="M432.846,421.569c-1.279,0-2.56-0.488-3.535-1.465l-6.465-6.464l-6.465,6.464
					c-1.951,1.953-5.119,1.953-7.07,0c-1.953-1.952-1.953-5.118,0-7.07l10-10c1.951-1.953,5.119-1.953,7.07,0l10,10
					c1.953,1.952,1.953,5.118,0,7.07C435.405,421.081,434.125,421.569,432.846,421.569z"/>
			</g>
		</g>
	</g>
</g>
<g>
</g>
<g>
</g>
<g>
</g>
<g>
</g>
<g>
</g>
<g>
</g>
<g>
</g>
<g>
</g>
<g>
</g>
<g>
</g>
<g>
</g>
<g>
</g>
<g>
</g>
<g>
</g>
<g>
</g>
</svg>
