<?xml version="1.0" encoding="iso-8859-1"?>
<!-- Generator: Adobe Illustrator 19.0.0, SVG Export Plug-In . SVG Version: 6.00 Build 0)  -->
<svg version="1.1" id="Capa_1" xmlns="http://www.w3.org/2000/svg" xmlns:xlink="http://www.w3.org/1999/xlink" x="0px" y="0px"
	 viewBox="0 0 511.699 511.699" style="enable-background:new 0 0 511.699 511.699;" xml:space="preserve">
<g>
	<g transform="translate(5 5)">
		<path style="fill:#00695C;" d="M464.163,250.801c-0.043,117.803-95.53,213.291-213.333,213.333c-4.267,0-8.448-0.171-12.629-0.427
			c-0.03,0.04-0.078,0.063-0.128,0.063s-0.098-0.023-0.128-0.063C125.339,456.913,37.497,363.611,37.497,250.801
			S125.339,44.689,237.944,37.895c0.03-0.04,0.078-0.064,0.128-0.064c0.05,0,0.098,0.024,0.128,0.064
			c4.181-0.256,8.363-0.427,12.629-0.427C368.645,37.481,464.15,132.986,464.163,250.801z"/>
		<path style="fill:#009688;" d="M438.563,250.801c-0.037,112.763-87.809,206.031-200.363,212.907
			c-0.03,0.04-0.078,0.063-0.128,0.063s-0.098-0.023-0.128-0.063C125.339,456.913,37.497,363.611,37.497,250.801
			S125.339,44.689,237.944,37.895c0.03-0.04,0.078-0.064,0.128-0.064c0.05,0,0.098,0.024,0.128,0.064
			C350.767,44.742,438.555,138.026,438.563,250.801z"/>
		<path style="fill:#AD1457;" d="M353.229,319.068v42.667h-204.8v-42.667c0.014-4.707,3.826-8.52,8.533-8.533h187.733
			C349.403,310.548,353.216,314.361,353.229,319.068z"/>
		<path style="fill:#E91E63;" d="M327.629,319.068v42.667h-179.2v-42.667c0.014-4.707,3.826-8.52,8.533-8.533h162.133
			C323.803,310.548,327.616,314.361,327.629,319.068z"/>
		<path style="fill:#AD1457;" d="M353.229,174.001h-204.8l18.517-37.035c4.327-8.671,13.18-14.154,22.87-14.165h122.027
			c9.69,0.012,18.543,5.495,22.87,14.165L353.229,174.001z"/>
		<g>
			<path style="fill:#E91E63;" d="M327.629,174.001h-179.2l18.517-37.035c4.327-8.671,13.18-14.154,22.87-14.165h96.427
				c9.69,0.012,18.543,5.495,22.87,14.165L327.629,174.001z"/>
			<path style="fill:#E91E63;" d="M199.629,174.001h51.2v25.6c0,14.138-11.462,25.6-25.6,25.6c-14.138,0-25.6-11.462-25.6-25.6
				V174.001z"/>
		</g>
		<g>
			<path style="fill:#F4F4F4;" d="M250.829,174.001h51.2v25.6c0,14.138-11.462,25.6-25.6,25.6s-25.6-11.462-25.6-25.6V174.001z"/>
			<path style="fill:#F4F4F4;" d="M148.429,174.001h51.2v25.6c0,14.138-11.462,25.6-25.6,25.6s-25.6-11.462-25.6-25.6V174.001z"/>
		</g>
		<path style="fill:#AD1457;" d="M353.229,174.001v25.6c0,14.138-11.462,25.6-25.6,25.6s-25.6-11.462-25.6-25.6v-25.6H353.229z"/>
		<path style="fill:#E91E63;" d="M327.629,174.001l0,25.6c0.013,9.154-4.869,17.616-12.8,22.187
			c-7.931-4.571-12.813-13.033-12.8-22.187v-25.6H327.629z"/>
	</g>
	<g>
		<path d="M501.021,11.056c-31.272-31.288-111.371,10.75-158.928,40.468c-83.126-34.981-179.155-16.16-242.926,47.612
			s-82.592,159.801-47.61,242.926c-29.729,47.567-71.75,127.654-40.469,158.928c8.341,7.527,19.373,11.358,30.583,10.621
			c32.102,0,78.929-20.841,127.708-51.363c83.244,35.342,179.609,16.616,243.559-47.33s82.683-160.309,47.347-243.555
			C503.897,99.834,526.383,36.421,501.021,11.056z M23.154,488.922c-15.506-15.502-0.916-65.242,37.172-128.554
			c20.694,38.622,52.288,70.306,90.851,91.11C85.376,491.118,37.35,503.121,23.154,488.922z M460.855,256.022
			c0.015,66.623-32.385,129.088-86.855,167.45c-54.47,38.362-124.199,47.824-186.922,25.366
			c19.07-12.713,38.202-26.672,56.652-41.278c3.686-2.93,4.304-8.291,1.38-11.983c-2.924-3.691-8.284-4.318-11.98-1.401
			c-22.897,18.128-44.658,33.593-65.054,46.75c-81.366-38.7-127.877-126.035-114.579-215.149s83.28-159.066,172.399-172.326
			s176.435,33.289,215.1,114.671c-24.198,37.096-51.149,72.323-80.624,105.382c-3.123,3.53-2.793,8.923,0.737,12.046
			c3.53,3.123,8.923,2.793,12.046-0.737c27.374-30.889,52.664-63.564,75.702-97.809
			C456.809,209.146,460.868,232.496,460.855,256.022L460.855,256.022z M451.533,151.19c-20.802-38.583-52.496-70.194-91.133-90.896
			c63.304-38.079,113.042-52.681,128.554-37.172C503.733,37.907,490.158,87.018,451.533,151.19z"/>
		<path d="M366.763,315.535c0.001-2.263-0.898-4.434-2.499-6.035c-1.6-1.6-3.771-2.499-6.035-2.499h-17.067v-69.478
			c15.031-3.869,25.554-17.4,25.6-32.922v-25.6c0-0.11-0.058-0.202-0.062-0.311c-0.036-0.897-0.214-1.783-0.529-2.624
			c-0.07-0.189-0.115-0.38-0.197-0.563c-0.047-0.104-0.06-0.217-0.111-0.319l-18.525-37.05
			c-5.749-11.595-17.591-18.913-30.533-18.867h-121.95c-12.942-0.046-24.784,7.271-30.533,18.867l-18.525,37.05
			c-0.052,0.103-0.065,0.216-0.112,0.32c-0.081,0.182-0.125,0.372-0.195,0.56c-0.315,0.841-0.494,1.727-0.53,2.625
			c-0.004,0.11-0.063,0.202-0.063,0.312v25.6c0.046,15.521,10.569,29.053,25.6,32.922v69.478h-17.067
			c-2.263-0.001-4.434,0.898-6.035,2.499c-1.6,1.6-2.499,3.771-2.499,6.035v42.667h-8.533c-4.713,0-8.533,3.821-8.533,8.533
			s3.821,8.533,8.533,8.533h238.933c4.713,0,8.533-3.82,8.533-8.533s-3.821-8.533-8.533-8.533h-8.533V315.535z M349.696,204.601
			c0,9.426-7.641,17.067-17.067,17.067s-17.067-7.641-17.067-17.067v-17.067h34.133V204.601z M298.496,204.601
			c0,9.426-7.641,17.067-17.067,17.067s-17.067-7.641-17.067-17.067v-17.067h34.133V204.601z M247.296,204.601
			c0,9.426-7.641,17.067-17.067,17.067c-9.426,0-17.067-7.641-17.067-17.067v-17.067h34.133V204.601z M179.588,145.768
			c2.874-5.798,8.795-9.457,15.267-9.433h121.95c6.471-0.024,12.393,3.635,15.267,9.433l12.35,24.7H167.238L179.588,145.768z
			 M161.963,204.601v-17.067h34.133v17.067c0,9.426-7.641,17.067-17.067,17.067C169.604,221.668,161.963,214.027,161.963,204.601z
			 M187.563,237.523c6.625-1.728,12.574-5.417,17.067-10.583c6.399,7.485,15.753,11.795,25.6,11.795
			c9.847,0,19.201-4.31,25.6-11.795c6.399,7.485,15.753,11.795,25.6,11.795c9.847,0,19.201-4.31,25.6-11.795
			c4.493,5.167,10.441,8.855,17.067,10.583v69.478h-59.733v-22.067l2.5,2.5c3.338,3.296,8.711,3.279,12.029-0.038
			c3.317-3.317,3.334-8.691,0.038-12.029l-17.059-17.059c-3.341-3.325-8.741-3.325-12.081,0l-17.059,17.059
			c-3.281,3.341-3.256,8.701,0.054,12.012c3.311,3.311,8.671,3.335,12.012,0.054l2.5-2.5v22.067h-59.733V237.523z M161.963,358.201
			v-34.133h85.333v8.533c0,4.713,3.821,8.533,8.533,8.533c4.713,0,8.533-3.821,8.533-8.533v-8.533h85.333v34.133H161.963z"/>
	</g>
</g>
<g>
</g>
<g>
</g>
<g>
</g>
<g>
</g>
<g>
</g>
<g>
</g>
<g>
</g>
<g>
</g>
<g>
</g>
<g>
</g>
<g>
</g>
<g>
</g>
<g>
</g>
<g>
</g>
<g>
</g>
</svg>
